<mxfile host="app.diagrams.net" modified="2021-10-18T03:12:14.758Z" agent="5.0 (X11)" etag="NotDvF8tw3-BmjIQwfKJ" version="15.5.4" type="github">
  <diagram id="x3bZEKzIrU5vF-PoZajj" name="Page-1">
    <mxGraphModel dx="1588" dy="881" grid="1" gridSize="10" guides="1" tooltips="1" connect="1" arrows="1" fold="1" page="1" pageScale="1" pageWidth="850" pageHeight="1100" math="0" shadow="0">
      <root>
        <mxCell id="0" />
        <mxCell id="1" parent="0" />
        <mxCell id="INWDmzKCR33we1PkqdAR-22" value="" style="edgeStyle=orthogonalEdgeStyle;rounded=0;orthogonalLoop=1;jettySize=auto;html=1;fontSize=14;" edge="1" parent="1" source="INWDmzKCR33we1PkqdAR-1" target="INWDmzKCR33we1PkqdAR-5">
          <mxGeometry relative="1" as="geometry" />
        </mxCell>
        <mxCell id="INWDmzKCR33we1PkqdAR-1" value="&lt;div&gt;&lt;font style=&quot;font-size: 14px&quot;&gt;&lt;br&gt;&lt;/font&gt;&lt;/div&gt;&lt;div&gt;&lt;font size=&quot;3&quot;&gt;Cân bằng gamma&lt;br&gt;&lt;/font&gt;&lt;/div&gt;" style="rounded=0;whiteSpace=wrap;html=1;" vertex="1" parent="1">
          <mxGeometry x="150" y="190" width="120" height="60" as="geometry" />
        </mxCell>
        <mxCell id="INWDmzKCR33we1PkqdAR-28" value="" style="edgeStyle=orthogonalEdgeStyle;rounded=0;orthogonalLoop=1;jettySize=auto;html=1;fontSize=14;" edge="1" parent="1" source="INWDmzKCR33we1PkqdAR-2" target="INWDmzKCR33we1PkqdAR-8">
          <mxGeometry relative="1" as="geometry" />
        </mxCell>
        <mxCell id="INWDmzKCR33we1PkqdAR-2" value="&lt;font style=&quot;font-size: 14px&quot;&gt;Tính toán histogram, tìm ra ngưỡng tự động&lt;/font&gt;" style="rounded=0;whiteSpace=wrap;html=1;" vertex="1" parent="1">
          <mxGeometry x="420" y="180" width="140" height="80" as="geometry" />
        </mxCell>
        <mxCell id="INWDmzKCR33we1PkqdAR-20" value="" style="edgeStyle=orthogonalEdgeStyle;rounded=0;orthogonalLoop=1;jettySize=auto;html=1;fontSize=14;" edge="1" parent="1" source="INWDmzKCR33we1PkqdAR-4" target="INWDmzKCR33we1PkqdAR-1">
          <mxGeometry relative="1" as="geometry" />
        </mxCell>
        <mxCell id="INWDmzKCR33we1PkqdAR-4" value="&lt;font style=&quot;font-size: 14px&quot;&gt;Ảnh đầu vào&lt;/font&gt;" style="text;html=1;strokeColor=none;fillColor=none;align=center;verticalAlign=middle;whiteSpace=wrap;rounded=0;" vertex="1" parent="1">
          <mxGeometry x="60" y="205" width="60" height="30" as="geometry" />
        </mxCell>
        <mxCell id="INWDmzKCR33we1PkqdAR-23" value="" style="edgeStyle=orthogonalEdgeStyle;rounded=0;orthogonalLoop=1;jettySize=auto;html=1;fontSize=14;" edge="1" parent="1" source="INWDmzKCR33we1PkqdAR-5" target="INWDmzKCR33we1PkqdAR-6">
          <mxGeometry relative="1" as="geometry" />
        </mxCell>
        <mxCell id="INWDmzKCR33we1PkqdAR-24" value="" style="edgeStyle=orthogonalEdgeStyle;rounded=0;orthogonalLoop=1;jettySize=auto;html=1;fontSize=14;" edge="1" parent="1" source="INWDmzKCR33we1PkqdAR-5" target="INWDmzKCR33we1PkqdAR-2">
          <mxGeometry relative="1" as="geometry" />
        </mxCell>
        <mxCell id="INWDmzKCR33we1PkqdAR-5" value="&lt;font style=&quot;font-size: 14px&quot;&gt;Ảnh đã cân bằng gamma&lt;/font&gt;" style="text;html=1;strokeColor=none;fillColor=none;align=center;verticalAlign=middle;whiteSpace=wrap;rounded=0;" vertex="1" parent="1">
          <mxGeometry x="300" y="195" width="90" height="50" as="geometry" />
        </mxCell>
        <mxCell id="INWDmzKCR33we1PkqdAR-6" value="&lt;font style=&quot;font-size: 14px&quot;&gt;Ảnh vùng chứa mặt&lt;/font&gt;" style="text;html=1;strokeColor=none;fillColor=none;align=center;verticalAlign=middle;whiteSpace=wrap;rounded=0;" vertex="1" parent="1">
          <mxGeometry x="305" y="290" width="80" height="30" as="geometry" />
        </mxCell>
        <mxCell id="INWDmzKCR33we1PkqdAR-8" value="&lt;font style=&quot;font-size: 14px&quot;&gt;Ảnh binary chứa các điểm lóa trong toàn bộ ảnh&lt;/font&gt;" style="text;html=1;strokeColor=none;fillColor=none;align=center;verticalAlign=middle;whiteSpace=wrap;rounded=0;" vertex="1" parent="1">
          <mxGeometry x="600" y="185" width="100" height="70" as="geometry" />
        </mxCell>
        <mxCell id="INWDmzKCR33we1PkqdAR-9" value="&lt;font style=&quot;font-size: 14px&quot;&gt;Ảnh binary chứa các điểm lóa trong vùng ảnh chứa mặt&lt;/font&gt;" style="text;html=1;strokeColor=none;fillColor=none;align=center;verticalAlign=middle;whiteSpace=wrap;rounded=0;" vertex="1" parent="1">
          <mxGeometry x="600" y="345" width="100" height="50" as="geometry" />
        </mxCell>
        <mxCell id="INWDmzKCR33we1PkqdAR-33" value="" style="edgeStyle=orthogonalEdgeStyle;rounded=0;orthogonalLoop=1;jettySize=auto;html=1;fontSize=14;" edge="1" parent="1" source="INWDmzKCR33we1PkqdAR-10" target="INWDmzKCR33we1PkqdAR-12">
          <mxGeometry relative="1" as="geometry" />
        </mxCell>
        <mxCell id="INWDmzKCR33we1PkqdAR-10" value="&lt;font style=&quot;font-size: 14px&quot;&gt;and&lt;/font&gt;" style="ellipse;whiteSpace=wrap;html=1;aspect=fixed;" vertex="1" parent="1">
          <mxGeometry x="720" y="270" width="50" height="50" as="geometry" />
        </mxCell>
        <mxCell id="INWDmzKCR33we1PkqdAR-11" value="&lt;font style=&quot;font-size: 14px&quot;&gt;Ảnh binary sau &#39;and&#39;&lt;/font&gt;" style="text;html=1;strokeColor=none;fillColor=none;align=center;verticalAlign=middle;whiteSpace=wrap;rounded=0;" vertex="1" parent="1">
          <mxGeometry x="790" y="245" width="80" height="50" as="geometry" />
        </mxCell>
        <mxCell id="INWDmzKCR33we1PkqdAR-34" value="" style="edgeStyle=orthogonalEdgeStyle;rounded=0;orthogonalLoop=1;jettySize=auto;html=1;fontSize=14;" edge="1" parent="1" source="INWDmzKCR33we1PkqdAR-12" target="INWDmzKCR33we1PkqdAR-13">
          <mxGeometry relative="1" as="geometry" />
        </mxCell>
        <mxCell id="INWDmzKCR33we1PkqdAR-12" value="&lt;font style=&quot;font-size: 14px&quot;&gt;Loại bỏ điểm lóa ở những vùng ảnh không quan tâm&lt;/font&gt;" style="rounded=0;whiteSpace=wrap;html=1;" vertex="1" parent="1">
          <mxGeometry x="880" y="260" width="130" height="70" as="geometry" />
        </mxCell>
        <mxCell id="INWDmzKCR33we1PkqdAR-35" value="" style="edgeStyle=orthogonalEdgeStyle;rounded=0;orthogonalLoop=1;jettySize=auto;html=1;fontSize=14;" edge="1" parent="1" source="INWDmzKCR33we1PkqdAR-13" target="INWDmzKCR33we1PkqdAR-15">
          <mxGeometry relative="1" as="geometry" />
        </mxCell>
        <mxCell id="INWDmzKCR33we1PkqdAR-13" value="&lt;font style=&quot;font-size: 14px&quot;&gt;Loại bỏ điểm lóa giả ở vùng chứa chữ&lt;/font&gt;" style="rounded=0;whiteSpace=wrap;html=1;" vertex="1" parent="1">
          <mxGeometry x="1060" y="260" width="130" height="70" as="geometry" />
        </mxCell>
        <mxCell id="INWDmzKCR33we1PkqdAR-36" value="" style="edgeStyle=orthogonalEdgeStyle;rounded=0;orthogonalLoop=1;jettySize=auto;html=1;fontSize=14;" edge="1" parent="1" source="INWDmzKCR33we1PkqdAR-15" target="INWDmzKCR33we1PkqdAR-17">
          <mxGeometry relative="1" as="geometry" />
        </mxCell>
        <mxCell id="INWDmzKCR33we1PkqdAR-15" value="&lt;font style=&quot;font-size: 14px&quot;&gt;Loại bỏ điểm lóa giả ở vùng mặt&lt;/font&gt;" style="rounded=0;whiteSpace=wrap;html=1;" vertex="1" parent="1">
          <mxGeometry x="1230" y="260" width="130" height="70" as="geometry" />
        </mxCell>
        <mxCell id="INWDmzKCR33we1PkqdAR-16" value="&lt;font style=&quot;font-size: 14px&quot;&gt;Ảnh binary chứa các điểm hóa hợp lệ&lt;/font&gt;" style="text;html=1;strokeColor=none;fillColor=none;align=center;verticalAlign=middle;whiteSpace=wrap;rounded=0;" vertex="1" parent="1">
          <mxGeometry x="1370" y="222.5" width="100" height="95" as="geometry" />
        </mxCell>
        <mxCell id="INWDmzKCR33we1PkqdAR-17" value="&lt;font style=&quot;font-size: 14px&quot;&gt;Đưa ra quyết định lóa hay không lóa&lt;/font&gt;" style="text;html=1;strokeColor=none;fillColor=none;align=center;verticalAlign=middle;whiteSpace=wrap;rounded=0;" vertex="1" parent="1">
          <mxGeometry x="1480" y="265" width="90" height="60" as="geometry" />
        </mxCell>
        <mxCell id="INWDmzKCR33we1PkqdAR-27" value="" style="edgeStyle=orthogonalEdgeStyle;rounded=0;orthogonalLoop=1;jettySize=auto;html=1;fontSize=14;" edge="1" parent="1" source="INWDmzKCR33we1PkqdAR-19" target="INWDmzKCR33we1PkqdAR-9">
          <mxGeometry relative="1" as="geometry" />
        </mxCell>
        <mxCell id="INWDmzKCR33we1PkqdAR-19" value="&lt;font style=&quot;font-size: 14px&quot;&gt;Tính toán histogram, tìm ra ngưỡng tự động&lt;/font&gt;" style="rounded=0;whiteSpace=wrap;html=1;" vertex="1" parent="1">
          <mxGeometry x="420" y="330" width="140" height="80" as="geometry" />
        </mxCell>
        <mxCell id="INWDmzKCR33we1PkqdAR-25" value="" style="endArrow=classic;html=1;rounded=0;fontSize=14;entryX=-0.017;entryY=0.554;entryDx=0;entryDy=0;entryPerimeter=0;" edge="1" parent="1" target="INWDmzKCR33we1PkqdAR-19">
          <mxGeometry width="50" height="50" relative="1" as="geometry">
            <mxPoint x="340" y="374" as="sourcePoint" />
            <mxPoint x="330" y="300" as="targetPoint" />
          </mxGeometry>
        </mxCell>
        <mxCell id="INWDmzKCR33we1PkqdAR-26" value="" style="endArrow=none;html=1;rounded=0;fontSize=14;entryX=0.443;entryY=1.038;entryDx=0;entryDy=0;entryPerimeter=0;" edge="1" parent="1" target="INWDmzKCR33we1PkqdAR-6">
          <mxGeometry width="50" height="50" relative="1" as="geometry">
            <mxPoint x="340" y="370" as="sourcePoint" />
            <mxPoint x="330" y="300" as="targetPoint" />
          </mxGeometry>
        </mxCell>
        <mxCell id="INWDmzKCR33we1PkqdAR-29" value="" style="endArrow=none;html=1;rounded=0;fontSize=14;entryX=1;entryY=0.5;entryDx=0;entryDy=0;" edge="1" parent="1" target="INWDmzKCR33we1PkqdAR-8">
          <mxGeometry width="50" height="50" relative="1" as="geometry">
            <mxPoint x="740" y="220" as="sourcePoint" />
            <mxPoint x="620" y="270" as="targetPoint" />
          </mxGeometry>
        </mxCell>
        <mxCell id="INWDmzKCR33we1PkqdAR-30" value="" style="endArrow=none;html=1;rounded=0;fontSize=14;exitX=1;exitY=0.5;exitDx=0;exitDy=0;" edge="1" parent="1" source="INWDmzKCR33we1PkqdAR-9">
          <mxGeometry width="50" height="50" relative="1" as="geometry">
            <mxPoint x="570" y="320" as="sourcePoint" />
            <mxPoint x="740" y="370" as="targetPoint" />
          </mxGeometry>
        </mxCell>
        <mxCell id="INWDmzKCR33we1PkqdAR-31" value="" style="endArrow=classic;html=1;rounded=0;fontSize=14;entryX=0.4;entryY=1;entryDx=0;entryDy=0;entryPerimeter=0;" edge="1" parent="1" target="INWDmzKCR33we1PkqdAR-10">
          <mxGeometry width="50" height="50" relative="1" as="geometry">
            <mxPoint x="740" y="370" as="sourcePoint" />
            <mxPoint x="620" y="270" as="targetPoint" />
          </mxGeometry>
        </mxCell>
        <mxCell id="INWDmzKCR33we1PkqdAR-32" value="" style="endArrow=classic;html=1;rounded=0;fontSize=14;entryX=0.384;entryY=-0.04;entryDx=0;entryDy=0;entryPerimeter=0;" edge="1" parent="1" target="INWDmzKCR33we1PkqdAR-10">
          <mxGeometry width="50" height="50" relative="1" as="geometry">
            <mxPoint x="740" y="220" as="sourcePoint" />
            <mxPoint x="620" y="270" as="targetPoint" />
          </mxGeometry>
        </mxCell>
      </root>
    </mxGraphModel>
  </diagram>
</mxfile>
